<?xml version="1.0" encoding="utf-8"?>
<!-- Generator: Adobe Illustrator 27.2.0, SVG Export Plug-In . SVG Version: 6.00 Build 0)  -->
<svg version="1.1" id="Layer_1" xmlns="http://www.w3.org/2000/svg" xmlns:xlink="http://www.w3.org/1999/xlink" x="0px" y="0px"
	 viewBox="0 0 100 80.9" style="enable-background:new 0 0 100 80.9;" xml:space="preserve">
<style type="text/css">
	.st0{fill-rule:evenodd;clip-rule:evenodd;fill:url(#SVGID_1_);}
	.st1{fill:url(#SVGID_00000085226302184379339870000008920785299658089357_);}
	.st2{fill:url(#SVGID_00000077295272193301211420000006854643967496794302_);}
	.st3{fill:url(#SVGID_00000043442677372352839020000013912256472624941237_);}
	.st4{fill:url(#SVGID_00000048480027002323824730000014497392324898521265_);}
	.st5{fill:url(#SVGID_00000102521399383278456170000000812441522419900802_);}
	.st6{fill:url(#SVGID_00000065073893243060230840000014675840743020349355_);}
	.st7{fill:url(#SVGID_00000069374700092220290770000015980906657364539529_);}
	.st8{fill:#FFFFFF;}
</style>
<g>
	<linearGradient id="SVGID_1_" gradientUnits="userSpaceOnUse" x1="58.4625" y1="55.2136" x2="58.4625" y2="33.8789">
		<stop  offset="0.312" style="stop-color:#FFFFFF"/>
		<stop  offset="0.4997" style="stop-color:#B7B9BB"/>
		<stop  offset="0.6939" style="stop-color:#FFFFFF"/>
	</linearGradient>
	<path class="st0" d="M50.8,49.8h-5.4v-2.9h4.9c1.2,0,2.5,0.4,2.5,1.7C52.7,49.3,51.6,49.8,50.8,49.8L50.8,49.8z M60.3,40.1h6.5
		v14.6c0,0.3,0.1,0.4,0.4,0.4h5.7v-15h6.8v-5.7c0-0.3-0.1-0.4-0.4-0.4h-19V40.1L60.3,40.1z M17.6,44c0,3.7,0.8,5.7,3.2,8.1
		c0.9,0.9,1.8,1.5,3,2.1c4.2,2,9.5,0.7,12.5-3.1c0.5-0.6,1.4-1.8,1.5-2.7l-2.7-1.2c-0.9-0.4-1.9-1-2.8-1.2c-0.5,1.7-2.4,3-4.3,3
		c-2.1,0-4.3-1.9-4.3-3.9V44c0-2.8,4.1-5.3,7.1-3c0.8,0.7,1,1.2,1.5,2.1l5.4-2.5c-0.2-2-4.3-5.9-5.5-5.6l-3.8,1.9
		c-2.2,1-1,0.7-1.8-2.8C22.1,34.5,17.6,39,17.6,44L17.6,44z M81.1,34.4v20.3c0,0.3,0.1,0.4,0.4,0.4h5.4c0.3,0,0.4-0.1,0.4-0.4v-7.1
		h12v-6.1h-12v-1.4h12v-5.7c0-0.3-0.1-0.4-0.4-0.4H81.6C81.2,33.9,81.1,34,81.1,34.4L81.1,34.4z M50.1,42.3h-4.7v-3.2h4.5
		c1.4,0,2.9,0.4,2.9,1.8C52.7,42,51.2,42.3,50.1,42.3L50.1,42.3z M39.1,34.4v20.3c0,0.3,0.1,0.4,0.4,0.4c3.3,0,11.7,0.3,14.5-0.6
		c2.2-0.7,3.7-1.8,4.4-4c0.6-2,0.5-5.7-1.9-5.9c0.6-0.8,1.7,0,2.2-3.5c0.2-1.4-0.4-3.2-1.3-4.5c-0.8-1-2.2-1.8-3.6-2.2
		c-2.8-0.8-11-0.5-14.2-0.5C39.2,33.9,39.1,34,39.1,34.4z"/>
	<g>
		
			<linearGradient id="SVGID_00000035497960973749591980000006391762833768427668_" gradientUnits="userSpaceOnUse" x1="29.7883" y1="7.319" x2="20.4718" y2="66.8719">
			<stop  offset="0" style="stop-color:#DD00FF"/>
			<stop  offset="0.999" style="stop-color:#2E2EE5"/>
		</linearGradient>
		<path style="fill:url(#SVGID_00000035497960973749591980000006391762833768427668_);" d="M20,60.4c-5.8-9.1-6.3-19.6-1.2-25
			c1-1,3.6-3.4,8.7-4c0,1.6,0,3.2,0,4.8c4.4-2.1,9.3-5.1,14.1-9.4c1.1-1,2.1-2,3.1-3c-2-1-4.6-2-7.6-2.9c-3.2-0.8-6-1.2-8.3-1.3
			c0,0.8,0,1.7,0,2.5C20.2,21.5,11.6,26.9,9,32.5C4.7,41.8,9.2,54.8,20,60.4z"/>
		
			<linearGradient id="SVGID_00000070116747888674989820000011563592243867327141_" gradientUnits="userSpaceOnUse" x1="12.2075" y1="22.4827" x2="34.6705" y2="65.1034" gradientTransform="matrix(1 0 0 -1 0 82)">
			<stop  offset="0" style="stop-color:#5D28F6"/>
			<stop  offset="0.4481" style="stop-color:#A200FF"/>
		</linearGradient>
		<path style="fill:url(#SVGID_00000070116747888674989820000011563592243867327141_);" d="M20,60.4c-5.9-4.4-10-13.2-8-20.8
			c2.3-8.7,10.5-12.1,11.5-12.5c-1.5,0.4-3.3,1-5.2,1.7c-1.9,0.8-3.6,1.7-5,2.5c2-1.6,4.5-3.2,7.5-4.6c9.9-4.5,19.2-2.9,24-2.8
			c-11.3,0.3-30,5.5-31.9,17.7C11.3,51.9,19.2,59.4,20,60.4z"/>
		
			<linearGradient id="SVGID_00000031176153793254119880000013801770981629442955_" gradientUnits="userSpaceOnUse" x1="34.3527" y1="68.1372" x2="9.9448" y2="21.3413" gradientTransform="matrix(1 0 0 -1 0 82)">
			<stop  offset="0" style="stop-color:#EF66FF"/>
			<stop  offset="0.999" style="stop-color:#A269AB;stop-opacity:0"/>
		</linearGradient>
		<path style="fill:url(#SVGID_00000031176153793254119880000013801770981629442955_);" d="M20.8,26.6c-3.1,1.2-5.5,3-7.5,4.6
			c1.4-0.8,3.1-1.7,5-2.5c1.9-0.8,3.6-1.3,5.2-1.7c-1,0.4-9.1,3.8-11.5,12.5c-2,7.5,2,16.4,8,20.8C9.3,54.8,4.7,41.8,9,32.6
			c2.6-5.5,11.2-10.9,19.8-10.5v-2.5c2.3,0.1,5.1,0.5,8.3,1.3c3.1,0.8,5.6,1.9,7.6,2.9C40,23.7,31.6,22.3,20.8,26.6z"/>
	</g>
	
		<linearGradient id="SVGID_00000132077507441543021990000012218932327234035850_" gradientUnits="userSpaceOnUse" x1="18.6364" y1="74.075" x2="5.0857" y2="35.6957" gradientTransform="matrix(1 0 0 -1 0 82)">
		<stop  offset="5.078125e-04" style="stop-color:#CF00F1"/>
		<stop  offset="1" style="stop-color:#6C44FC"/>
	</linearGradient>
	<path style="fill:url(#SVGID_00000132077507441543021990000012218932327234035850_);" d="M26.1,18.8c-2.1,0.3-4.1,0.8-6,1.5l0,0
		c-1.2,0.5-2.4,1-3.5,1.6h-0.1c-6.2,3.4-10.5,9-11.6,15.4c-1.5,8.3,3,15,4.2,16.6l-8.4-4.9V26.7l19.6-11.4
		C22.2,16.5,24.1,17.6,26.1,18.8z"/>
	
		<linearGradient id="SVGID_00000139281174711681690410000010084680824843968932_" gradientUnits="userSpaceOnUse" x1="31.4942" y1="80.0383" x2="-11.2618" y2="30.8858" gradientTransform="matrix(1 0 0 -1 0 82)">
		<stop  offset="0.1903" style="stop-color:#BD00F1"/>
		<stop  offset="0.925" style="stop-color:#6139FC"/>
	</linearGradient>
	<path style="fill:url(#SVGID_00000139281174711681690410000010084680824843968932_);" d="M26.1,18.8c-3.7,0.8-6.8,1.8-9.5,3.1h-0.1
		C9.2,25.7,5.2,32,0.7,42.8V26.7l19.6-11.4C22.2,16.5,24.1,17.6,26.1,18.8z"/>
	
		<linearGradient id="SVGID_00000132090199636472423410000010065154496158553517_" gradientUnits="userSpaceOnUse" x1="29.3637" y1="70.974" x2="-35.1911" y2="23.5049" gradientTransform="matrix(1 0 0 -1 0 82)">
		<stop  offset="7.803886e-02" style="stop-color:#EF66FF"/>
		<stop  offset="0.4971" style="stop-color:#743D96"/>
	</linearGradient>
	<path style="fill:url(#SVGID_00000132090199636472423410000010065154496158553517_);" d="M26.1,18.8c-1.2,0.2-3.4,0.7-6,1.5l0,0
		c-6,1.9-14.3,5.9-19.4,13.8v-7.4l19.6-11.4C22.2,16.5,24.1,17.6,26.1,18.8z"/>
	<g>
		
			<linearGradient id="SVGID_00000101061716885801665630000006113989069193466544_" gradientUnits="userSpaceOnUse" x1="58.4625" y1="64.6934" x2="58.4625" y2="56.8725">
			<stop  offset="4.492188e-04" style="stop-color:#6640EF"/>
			<stop  offset="1" style="stop-color:#DD00FF"/>
		</linearGradient>
		<path style="fill:url(#SVGID_00000101061716885801665630000006113989069193466544_);" d="M19.6,56.9l1.5,3.8
			c0.2,0.5-0.4,1.1-0.9,0.8l-2.6-1.3v4.5h81.7v-7.8H19.6z"/>
	</g>
	<g>
		<path class="st8" d="M23.4,60.5h2.8v0.8h-2.8V60.5z"/>
		<path class="st8" d="M34.4,61.8h-1.5v1.5h-1v-5.2c0.8,0,1.6,0,2.5,0C36.9,58.1,36.9,61.8,34.4,61.8z M32.9,60.9h1.5
			c1.3,0,1.3-1.9,0-1.9h-1.5V60.9z"/>
		<path class="st8" d="M46.5,58.1v3c0,1.5-0.9,2.3-2.3,2.3c-1.3,0-2.3-0.8-2.3-2.3v-3h1v3c0,0.9,0.5,1.4,1.4,1.4
			c0.8,0,1.3-0.5,1.3-1.4v-3H46.5z"/>
		<path class="st8" d="M55.9,58.1h1v5.2h-0.6v0l-2.7-3.5v3.5h-1v-5.2h0.8l2.6,3.2V58.1z"/>
		<path class="st8" d="M64.2,59h-1.7v-0.9c1.5,0,2.8,0,4.3,0V59h-1.7v4.3h-1V59z"/>
		<path class="st8" d="M76.3,63.3h-3.9c0-1.7,0-3.5,0-5.2h3.9v1h-2.9v1.2h2.8v0.9h-2.8v1.2h2.9V63.3z"/>
		<path class="st8" d="M86.7,63.3h-1.2L84,61.6h-0.9v1.7h-1v-5.2c0.8,0,1.7,0,2.5,0c1.2,0,1.9,0.8,1.9,1.7c0,0.7-0.3,1.4-1.3,1.6
			L86.7,63.3L86.7,63.3z M83.1,59v1.7h1.5c0.6,0,0.9-0.4,0.9-0.8c0-0.4-0.3-0.8-0.9-0.8H83.1z"/>
		<path class="st8" d="M92,60.5h2.8v0.8H92V60.5z"/>
	</g>
</g>
</svg>
